<svg xmlns="http://www.w3.org/2000/svg" xmlns:xlink="http://www.w3.org/1999/xlink" width="500" zoomAndPan="magnify" viewBox="0 0 375 374.999991" height="500" preserveAspectRatio="xMidYMid meet" version="1.0"><defs><clipPath id="4045bea46b"><path d="M 102.234375 67.667969 L 131.582031 67.667969 L 131.582031 97.714844 L 102.234375 97.714844 Z M 102.234375 67.667969 " clip-rule="nonzero"/></clipPath><clipPath id="188b515e71"><path d="M 131.550781 78.148438 C 131.550781 87.601562 130.5 90.074219 129.074219 91.875 C 127.648438 93.75 125.550781 95.398438 123.375 96.300781 C 121.273438 97.273438 118.648438 97.726562 116.324219 97.648438 C 114 97.5 111.449219 96.675781 109.5 95.476562 C 107.476562 94.273438 105.601562 92.398438 104.398438 90.375 C 103.199219 88.425781 102.449219 85.875 102.300781 83.550781 C 102.148438 81.226562 102.601562 78.601562 103.574219 76.5 C 104.550781 74.398438 106.199219 72.300781 108 70.800781 C 109.800781 69.375 112.273438 68.324219 114.523438 67.875 C 116.851562 67.5 119.476562 67.648438 121.726562 68.324219 C 123.898438 69 127.875 72.074219 127.875 72.074219 " clip-rule="nonzero"/></clipPath></defs><path fill="#fbc80b" d="M 92.835938 257.847656 L 93.242188 240.859375 C 93.394531 234.46875 98.261719 229.382812 104.097656 229.535156 L 125.121094 230.027344 C 130.957031 230.15625 135.589844 235.453125 135.417969 241.867188 L 135.011719 258.855469 C 134.859375 265.25 129.988281 270.332031 124.15625 270.183594 L 103.132812 269.691406 C 97.296875 269.539062 92.6875 264.242188 92.835938 257.847656 Z M 92.835938 257.847656 " fill-opacity="1" fill-rule="nonzero"/><path fill="#fbc80b" d="M 103.625 204.714844 L 90.753906 71.585938 C 89.898438 62.75 96.976562 55.199219 106.199219 55.433594 L 131.683594 56.035156 C 140.910156 56.25 147.625 64.121094 146.335938 72.917969 L 127.179688 205.273438 C 126.515625 209.796875 121.300781 213.144531 115.210938 212.996094 C 109.117188 212.867188 104.078125 209.28125 103.625 204.714844 Z M 103.625 204.714844 " fill-opacity="1" fill-rule="nonzero"/><path fill="#fbc80b" d="M 116.453125 307.789062 L 123.703125 287.667969 C 126.429688 280.09375 134.257812 275.953125 141.1875 278.464844 L 166.09375 287.429688 C 173.023438 289.917969 176.410156 298.089844 173.6875 305.664062 L 166.4375 325.785156 C 163.710938 333.359375 155.882812 337.496094 148.953125 334.988281 L 124.046875 326.019531 C 117.121094 323.53125 113.707031 315.359375 116.453125 307.789062 Z M 116.453125 307.789062 " fill-opacity="1" fill-rule="nonzero"/><path fill="#fbc80b" d="M 150.519531 248.644531 L 188.210938 84.542969 C 190.71875 73.644531 202.175781 67.46875 213.09375 71.394531 L 243.273438 82.269531 C 254.195312 86.195312 259.085938 98.273438 254.066406 108.269531 L 178.425781 258.707031 C 175.832031 263.855469 168.257812 265.765625 161.050781 263.167969 C 153.84375 260.550781 149.230469 254.265625 150.519531 248.644531 Z M 150.519531 248.644531 " fill-opacity="1" fill-rule="nonzero"/><path fill="#fbc80b" d="M 252.972656 72.210938 C 250.417969 71.609375 248.722656 69.183594 249.046875 66.566406 L 255.417969 16.5 C 255.800781 13.476562 258.699219 11.457031 261.660156 12.144531 L 270.539062 14.203125 C 273.457031 14.890625 275.171875 17.894531 274.273438 20.746094 L 259.019531 68.753906 C 258.203125 71.308594 255.566406 72.808594 252.972656 72.210938 Z M 252.972656 72.210938 " fill-opacity="1" fill-rule="nonzero"/><path fill="#fbc80b" d="M 270.347656 79.972656 C 269.574219 77.464844 270.816406 74.761719 273.242188 73.730469 L 319.683594 53.933594 C 322.472656 52.730469 325.691406 54.234375 326.589844 57.128906 L 329.292969 65.839844 C 330.175781 68.691406 328.4375 71.695312 325.519531 72.359375 L 276.375 83.449219 C 273.757812 84.050781 271.140625 82.527344 270.347656 79.972656 Z M 270.347656 79.972656 " fill-opacity="1" fill-rule="nonzero"/><path fill="#fbc80b" d="M 266.097656 99.601562 C 267.105469 97.179688 269.789062 95.890625 272.296875 96.640625 L 320.691406 111.015625 C 323.609375 111.871094 325.132812 115.070312 323.976562 117.878906 L 320.5 126.308594 C 319.363281 129.078125 316.101562 130.277344 313.441406 128.925781 L 268.523438 106.125 C 266.140625 104.921875 265.089844 102.089844 266.097656 99.601562 Z M 266.097656 99.601562 " fill-opacity="1" fill-rule="nonzero"/><g clip-path="url(#4045bea46b)"><g clip-path="url(#188b515e71)"><path fill="#fbc80b" d="M 99.300781 64.875 L 135.074219 64.875 L 135.074219 100.648438 L 99.300781 100.648438 Z M 99.300781 64.875 " fill-opacity="1" fill-rule="nonzero"/></g></g></svg>