<svg xmlns="http://www.w3.org/2000/svg" xmlns:xlink="http://www.w3.org/1999/xlink" width="500" zoomAndPan="magnify" viewBox="0 0 375 374.999991" height="500" preserveAspectRatio="xMidYMid meet" version="1.0"><defs><clipPath id="94f59f0ff6"><path d="M 0 0 L 367 0 L 367 264 L 0 264 Z M 0 0 " clip-rule="nonzero"/></clipPath><clipPath id="09129ec923"><path d="M 10 158 L 73 158 L 73 220 L 10 220 Z M 10 158 " clip-rule="nonzero"/></clipPath><clipPath id="4ca1e3c5a7"><path d="M 10.859375 137.167969 L 92.921875 174.125 L 64.28125 237.722656 L -17.78125 200.769531 Z M 10.859375 137.167969 " clip-rule="nonzero"/></clipPath><clipPath id="bb76fc0a70"><path d="M 10.859375 137.167969 L 92.921875 174.125 L 64.28125 237.722656 L -17.78125 200.769531 Z M 10.859375 137.167969 " clip-rule="nonzero"/></clipPath></defs><g clip-path="url(#94f59f0ff6)"><path fill="#048226" d="M 94.246094 201.566406 C 113.054688 184.128906 133.359375 167.253906 157.652344 159.03125 C 171.625 154.304688 186.40625 152.621094 200.976562 150.339844 C 226.398438 146.359375 251.738281 140.40625 275.011719 129.433594 C 298.289062 118.464844 319.523438 102.195312 333.5 80.585938 C 349.222656 56.273438 355.21875 26.375 366.769531 0.0234375 L -3.378906 0.0234375 L -3.378906 264.164062 C 10.042969 262.226562 23.265625 257.195312 35.027344 250.398438 C 57.234375 237.566406 75.441406 219 94.246094 201.566406 " fill-opacity="1" fill-rule="nonzero"/></g><g clip-path="url(#09129ec923)"><g clip-path="url(#4ca1e3c5a7)"><g clip-path="url(#bb76fc0a70)"><path fill="#c41a17" d="M 24.535156 219.808594 C 24.535156 219.808594 -3.480469 169.03125 19.527344 160.308594 C 42.535156 151.589844 42.660156 186.625 42.660156 186.625 C 42.660156 186.625 66.332031 162.304688 72.40625 184.121094 C 78.480469 205.9375 24.535156 219.808594 24.535156 219.808594 Z M 24.535156 219.808594 " fill-opacity="1" fill-rule="nonzero"/></g></g></g></svg>